# Blender v2.78 (sub 0) OBJ File: ''
# www.blender.org
mtllib С разверткой.mtl
o RetopoGroup1
v 0.009973 5.426816 -0.554823
v 0.312055 5.374239 -0.450317
v 0.311975 3.782201 -0.457913
v -0.049864 3.796801 -0.552372
v -0.332496 5.416027 -0.442851
v -0.361917 3.809882 -0.418859
v -0.547599 3.793993 -0.086343
v -0.530177 5.342894 -0.161069
v -0.389701 5.282815 0.391636
v -0.512934 5.283390 0.208642
v -0.475791 3.806884 0.282491
v -0.288039 3.805582 0.472091
v -0.071664 5.270517 0.549457
v -0.006907 3.804706 0.554189
v 0.273369 5.370680 0.481093
v 0.304215 3.802236 0.461721
v 0.536044 5.466186 0.143796
v 0.529773 3.785348 0.165085
v 0.513114 5.383418 -0.186088
v 0.510646 3.764307 -0.217247
v 0.425207 5.910903 -0.137146
v 0.266172 5.929752 -0.332362
v -0.006421 6.051902 -0.554931
v -0.298625 7.553596 -0.466653
v -0.506371 7.787141 -0.225504
v -0.434084 9.328677 -0.134238
v -0.537413 7.866718 0.136278
v -0.517824 9.299127 0.090692
v -0.423313 7.824815 0.355608
v -0.109000 7.673135 0.543598
v 0.254853 7.335259 0.466937
v 0.426956 7.449152 0.324756
v 0.543510 6.198607 0.108265
v 0.619614 3.519359 0.070270
v 0.594320 3.464342 -0.231576
v -0.438204 9.273602 0.322237
v -0.247570 10.027529 0.374965
v -0.385730 10.089288 0.218436
v -0.110779 8.942977 0.531238
v 0.267785 8.532008 0.471744
v -0.131561 8.497746 0.154956
v 0.273619 7.541482 0.205262
v -0.016315 7.508204 0.096474
v -0.112590 7.564821 -0.267094
v -0.405633 8.524201 -0.334105
v 0.041938 9.421967 0.502406
v -0.131631 9.853752 0.438083
v -0.202487 9.237824 0.214078
v 0.426277 6.212782 -0.042193
v 0.052595 5.947343 -0.001371
v 0.139628 6.127404 -0.377460
v -0.458452 10.069890 0.080163
v 0.358882 3.470018 -0.524980
v -0.032956 3.479679 -0.665922
v -0.441178 3.527798 -0.505840
v -0.652139 3.544890 -0.182814
v -0.659005 3.548440 0.065034
v -0.568561 3.545943 0.326341
v -0.314013 3.558203 0.592034
v 0.009118 3.543091 0.677445
v 0.335605 3.596902 0.553198
v 0.544893 3.575518 0.318647
v 0.420386 0.371500 0.547577
v 0.351205 -0.389051 0.491566
v 0.484902 -0.412068 0.276853
v 0.605619 0.167761 0.316744
v 0.560891 -0.367166 0.040524
v 0.675698 0.040302 0.023704
v 0.581792 0.255831 -0.306130
v 0.499884 -0.341981 -0.245613
v 0.247940 -0.368571 -0.498364
v 0.319206 0.259810 -0.535302
v -0.084563 -0.399146 -0.548818
v -0.070697 0.299595 -0.646305
v -0.390255 -0.414299 -0.401042
v -0.452171 0.284077 -0.493419
v -0.537346 -0.419099 -0.165615
v -0.692044 0.372941 -0.157928
v -0.546078 -0.403468 0.191115
v -0.683524 0.311676 0.126017
v -0.432998 -0.418820 0.386280
v -0.553453 0.181372 0.429195
v -0.558008 -1.235605 -0.213717
v -0.769718 -1.942325 -0.323884
v -0.815699 -1.934279 0.170153
v -0.680173 -1.223272 0.178319
v -0.203136 -0.314919 0.600946
v -0.236145 0.405849 0.654688
v 0.130294 -0.292711 0.605527
v 0.185618 0.123651 0.685911
v -0.592328 -1.888230 0.554156
v -0.547066 -1.225936 0.467757
v -0.257294 -1.966532 0.643839
v -0.260833 -1.191592 0.698115
v -0.008703 -1.908710 0.822539
v 0.066907 -1.153623 0.771690
v 0.459558 -1.920270 0.697136
v 0.341561 -1.184749 0.693051
v 0.569069 -1.919830 0.393623
v 0.499609 -1.218653 0.326943
v 0.869811 -2.007760 0.276897
v 0.553134 -1.187845 0.140488
v 0.768974 -1.813899 -0.235572
v 0.550623 -1.128344 -0.188329
v 0.291831 -1.113302 -0.523448
v 0.254464 -1.735296 -0.808342
v -0.108820 -1.822596 -0.960344
v -0.097735 -1.194320 -0.598903
v -0.542522 -1.898607 -0.801981
v -0.362944 -1.209179 -0.496911
v 0.302911 -2.082548 -0.972583
v 0.859786 -2.042466 -0.305595
v -0.041664 -2.164062 -1.124531
v 0.102584 -2.552768 -1.185745
v -0.158513 -2.874702 -1.257849
v -0.431837 -2.291229 -1.123715
v 0.485656 -2.247875 -0.833375
v 0.915640 -2.345722 -0.358663
v -0.745294 -2.468320 -0.803809
v -0.584987 -2.872855 -1.188496
v -0.280115 -3.322905 -1.224743
v -0.738925 -3.313865 -1.040746
v -0.875674 -2.922630 -0.591617
v -0.964684 -2.921564 0.293955
v -0.806973 -3.035983 0.757332
v -1.073144 -3.503923 0.272863
v -0.828111 -3.449836 0.751268
v -0.334610 -2.845590 0.865615
v -0.064570 -2.815377 0.988895
v -0.418914 -3.427295 0.878270
v -0.085017 -3.416199 1.044758
v 0.448947 -2.748456 1.035444
v 0.419638 -3.427600 1.112812
v 0.667125 -2.761610 0.893043
v 0.599891 -3.413134 0.977191
v 0.904803 -2.879723 0.773948
v 0.809029 -3.494725 0.890410
v 1.118949 -2.273419 0.030576
v 1.122485 -2.623402 -0.089710
v 1.155484 -2.825680 0.415170
v 1.158682 -3.000686 0.137849
v 1.117013 -3.497708 0.500363
v 1.118568 -3.377823 0.200859
v 0.608722 -4.207329 0.253926
v 0.623697 -4.020989 0.631246
v 0.356636 -3.912275 0.956748
v 0.108126 -4.291287 0.587229
v 0.842960 -4.006696 0.352889
v -0.119383 -3.894712 0.946696
v -0.378323 -3.825999 0.729353
v -0.707449 -3.878011 0.546209
v -0.879478 -3.907734 0.170999
v -0.788483 -3.658076 -0.451872
v -0.688094 -3.787515 -0.814284
v -0.210584 -3.858156 -0.955150
v -0.519971 -4.228986 -0.314032
v 0.051138 -4.174765 -0.636893
v 0.540177 -4.233079 -0.082192
v -0.148714 -4.451470 0.214938
v 0.834377 -3.922130 0.070857
v 0.851368 -3.971589 0.198466
v -0.292037 -4.167915 0.627921
v -0.557001 -4.250085 0.350173
v 0.853876 -2.663781 -1.173427
v 0.480014 -2.853035 -1.399436
v 0.211039 -3.322770 -1.441012
v 0.207472 -3.739401 -1.279566
v 0.406705 -4.032947 -1.023824
v 0.874167 -4.081541 -0.558666
v 1.138456 -3.855582 -0.317565
v 1.326280 -3.410191 -0.173500
v 1.343543 -3.045453 -0.207287
v 1.297529 -2.797416 -0.357746
v 1.164750 -2.623156 -0.717563
v 0.792869 -3.024293 -1.372893
v 0.675030 -3.393074 -1.415375
v 0.611396 -3.688407 -1.316980
v 0.674536 -3.875386 -1.149181
v 1.001322 -3.907912 -0.851654
v 1.232859 -3.713824 -0.676432
v 1.362605 -3.404130 -0.606232
v 1.385746 -3.133999 -0.581046
v 1.350107 -2.970888 -0.636782
v 1.239216 -2.841513 -0.853042
v 0.986483 -2.879485 -1.204769
v 1.136724 -3.252886 -1.133603
v 1.025308 -3.287698 -1.235436
v 0.977379 -3.449475 -1.237601
v 0.960672 -3.598812 -1.196044
v 1.070928 -3.670860 -1.036779
v 1.211158 -3.554003 -0.933302
v 1.275714 -3.360851 -0.921657
v 1.295004 -3.164945 -0.899085
vt 0.6322 0.7339
vt 0.6123 0.7495
vt 0.5140 0.6677
vt 0.5340 0.6444
vt 0.6505 0.7114
vt 0.5526 0.6235
vt 0.5722 0.5987
vt 0.6641 0.6870
vt 0.6914 0.6491
vt 0.6798 0.6621
vt 0.5938 0.5762
vt 0.6089 0.5601
vt 0.7095 0.6277
vt 0.6258 0.5424
vt 0.7340 0.6127
vt 0.6439 0.5225
vt 0.7623 0.5934
vt 0.6641 0.5003
vt 0.7750 0.5700
vt 0.6847 0.4788
vt 0.5964 0.7695
vt 0.4979 0.6867
vt 0.6291 0.7970
vt 0.6461 0.7835
vt 0.6714 0.7652
vt 0.7741 0.8216
vt 0.8029 0.8148
vt 0.8893 0.8874
vt 0.8254 0.7987
vt 0.8998 0.8729
vt 0.8357 0.7828
vt 0.8462 0.7547
vt 0.8467 0.7163
vt 0.8648 0.7098
vt 0.8063 0.6301
vt 0.8039 0.5996
vt 0.6558 0.4794
vt 0.6690 0.4616
vt 0.9109 0.8586
vt 0.9605 0.8915
vt 0.9520 0.9064
vt 0.9141 0.8215
vt 0.9136 0.7794
vt 0.8192 0.8960
vt 0.7386 0.8871
vt 0.7479 0.8646
vt 0.8058 0.9336
vt 0.7257 0.8980
vt 0.7642 0.8399
vt 0.8362 0.8585
vt 0.9468 0.8404
vt 0.9590 0.8744
vt 0.8778 0.9486
vt 0.8733 0.9159
vt 0.6420 0.8400
vt 0.6359 0.8538
vt 0.6411 0.8044
vt 0.6665 0.7835
vt 0.9317 0.9408
vt 0.9153 0.9462
vt 0.9410 0.9263
vt 0.9423 0.9139
vt 0.6549 0.8162
vt 0.6210 0.8269
vt 0.4940 0.6526
vt 0.4767 0.6744
vt 0.5129 0.6295
vt 0.5350 0.6081
vt 0.5532 0.5888
vt 0.5648 0.5766
vt 0.5775 0.5623
vt 0.5953 0.5438
vt 0.6101 0.5259
vt 0.6304 0.5115
vt 0.6453 0.4951
vt 0.4713 0.3509
vt 0.4285 0.3091
vt 0.4431 0.2935
vt 0.4758 0.3256
vt 0.4606 0.2828
vt 0.4845 0.3040
vt 0.5126 0.2967
vt 0.3058 0.5216
vt 0.2726 0.4901
vt 0.2883 0.4668
vt 0.3230 0.5024
vt 0.3043 0.4435
vt 0.3449 0.4823
vt 0.3225 0.4206
vt 0.3639 0.4591
vt 0.3377 0.4018
vt 0.3886 0.4413
vt 0.3593 0.3790
vt 0.3986 0.4227
vt 0.3717 0.3636
vt 0.4072 0.3985
vt 0.2826 0.3587
vt 0.2434 0.3197
vt 0.2671 0.2988
vt 0.3051 0.3349
vt 0.3966 0.3488
vt 0.4382 0.3888
vt 0.4189 0.3299
vt 0.4445 0.3524
vt 0.4783 0.2681
vt 0.2903 0.2805
vt 0.3220 0.3169
vt 0.3037 0.2608
vt 0.3437 0.2993
vt 0.3205 0.2481
vt 0.3635 0.2833
vt 0.3440 0.2226
vt 0.3771 0.2665
vt 0.3613 0.2087
vt 0.3987 0.2452
vt 0.3682 0.1870
vt 0.4119 0.2370
vt 0.4078 0.1777
vt 0.4352 0.2253
vt 0.2361 0.4320
vt 0.2183 0.4618
vt 0.1951 0.3963
vt 0.2032 0.3694
vt 0.2501 0.4003
vt 0.2194 0.3436
vt 0.2650 0.3813
vt 0.1654 0.4451
vt 0.1730 0.3807
vt 0.1480 0.4373
vt 0.1816 0.3580
vt 0.1581 0.3490
vt 0.1569 0.3252
vt 0.1900 0.3365
vt 0.1554 0.3885
vt 0.1278 0.4267
vt 0.2019 0.3136
vt 0.1732 0.3109
vt 0.1480 0.3031
vt 0.1668 0.2897
vt 0.1953 0.2873
vt 0.2263 0.2541
vt 0.2390 0.2313
vt 0.2029 0.2350
vt 0.2228 0.2178
vt 0.2646 0.2215
vt 0.2771 0.2106
vt 0.2392 0.2018
vt 0.2542 0.1890
vt 0.2979 0.1922
vt 0.2712 0.1725
vt 0.3068 0.1817
vt 0.2784 0.1646
vt 0.3103 0.1665
vt 0.2820 0.1539
vt 0.3672 0.1572
vt 0.4013 0.1595
vt 0.3582 0.1345
vt 0.3909 0.1367
vt 0.3275 0.1492
vt 0.3287 0.1305
vt 0.2946 0.1341
vt 0.3072 0.1213
vt 0.2502 0.1140
vt 0.2583 0.1363
vt 0.2537 0.1571
vt 0.2275 0.1419
vt 0.2674 0.1207
vt 0.2363 0.1721
vt 0.2215 0.1841
vt 0.1971 0.1974
vt 0.1815 0.2229
vt 0.1708 0.2582
vt 0.1551 0.2695
vt 0.1324 0.2775
vt 0.1440 0.2365
vt 0.1121 0.2570
vt 0.0716 0.2286
vt 0.1215 0.1955
vt 0.2438 0.0915
vt 0.2731 0.1044
vt 0.2703 0.1122
vt 0.1970 0.1269
vt 0.2119 0.1627
vt 0.1830 0.1636
vt 0.1600 0.1937
vt 0.1184 0.3685
vt 0.1291 0.3446
vt 0.1273 0.3183
vt 0.1173 0.2996
vt 0.0995 0.2854
vt 0.0589 0.2723
vt 0.2751 0.0590
vt 0.2947 0.0812
vt 0.3190 0.0992
vt 0.3388 0.1082
vt 0.3576 0.1092
vt 0.3851 0.0964
vt 0.0995 0.4007
vt 0.1110 0.3462
vt 0.1065 0.3270
vt 0.1011 0.3120
vt 0.0913 0.3021
vt 0.0620 0.2996
vt 0.2975 0.0432
vt 0.3125 0.0629
vt 0.3309 0.0754
vt 0.3457 0.0848
vt 0.3572 0.0870
vt 0.3751 0.0784
vt 0.0866 0.3849
vt 0.1049 0.3614
vt 0.0836 0.3488
vt 0.0905 0.3423
vt 0.0878 0.3327
vt 0.0837 0.3242
vt 0.0692 0.3228
vt 0.3197 0.0353
vt 0.3286 0.0484
vt 0.3420 0.0555
vt 0.3548 0.0632
vt 0.0710 0.3650
vt 0.0608 0.3362
vt 0.0647 0.3512
vn 0.0516 0.0319 -0.9981
vn 0.6043 0.0726 -0.7934
vn 0.5592 0.1447 -0.8163
vn -0.0379 0.1718 -0.9844
vn -0.6025 -0.0025 -0.7981
vn -0.6210 0.2065 -0.7561
vn -0.9536 0.2446 -0.1753
vn -0.9605 -0.0020 -0.2781
vn -0.6473 0.0011 0.7622
vn -0.9450 -0.0007 0.3271
vn -0.8735 0.2157 0.4364
vn -0.5412 0.2145 0.8131
vn -0.1091 0.0042 0.9940
vn -0.0264 0.2367 0.9712
vn 0.5205 0.0037 0.8538
vn 0.5513 0.2335 0.8010
vn 0.9667 0.0199 0.2549
vn 0.9473 0.1799 0.2651
vn 0.9163 0.0644 -0.3953
vn 0.9160 0.1546 -0.3703
vn 0.6877 0.4086 -0.6001
vn 0.7232 0.5220 -0.4521
vn 0.2087 0.1021 -0.9726
vn -0.0133 0.1499 -0.9886
vn -0.9239 0.0114 -0.3823
vn -0.1303 0.2597 -0.9568
vn -0.9850 0.0134 0.1717
vn -0.9963 0.0550 0.0659
vn -0.7247 0.0069 0.6890
vn -0.1649 0.0042 0.9863
vn 0.4716 -0.0002 0.8818
vn 0.9902 0.1364 0.0298
vn 0.9888 0.1047 -0.1064
vn 0.9881 0.1491 0.0384
vn 0.9014 0.1357 -0.4112
vn -0.7473 0.0565 0.6621
vn 0.2959 0.8594 0.4168
vn -0.1256 0.9896 -0.0705
vn -0.1905 0.0221 0.9814
vn 0.9400 0.2061 0.2718
vn 0.7483 0.1734 -0.6402
vn 0.4660 0.1689 -0.8685
vn 0.7255 0.1402 -0.6738
vn 0.9023 0.1677 -0.3970
vn -0.0852 0.2394 -0.9671
vn 0.8390 0.3559 0.4116
vn 0.6286 0.6114 0.4806
vn 0.7648 0.1626 -0.6234
vn 0.4075 0.2069 -0.8895
vn 0.6023 0.5735 -0.5553
vn 0.9003 0.2864 -0.3279
vn -0.3439 0.7324 -0.5876
vn 0.5457 0.1355 -0.8269
vn -0.0212 0.1529 -0.9880
vn -0.6171 0.1990 -0.7613
vn -0.9294 0.2171 -0.2983
vn -0.9619 0.2195 0.1627
vn -0.8276 0.2088 0.5210
vn -0.4452 0.2112 0.8701
vn 0.0836 0.2083 0.9745
vn 0.5597 0.2380 0.7938
vn 0.8633 0.1901 0.4675
vn 0.6219 -0.0323 0.7824
vn 0.6808 0.0008 0.7324
vn 0.9052 -0.0610 0.4205
vn 0.8841 -0.0898 0.4586
vn 0.9931 -0.1082 0.0445
vn 0.9899 -0.1414 -0.0003
vn 0.8706 -0.0660 -0.4875
vn 0.8733 -0.0845 -0.4797
vn 0.4705 -0.0450 -0.8812
vn 0.5029 -0.0677 -0.8617
vn -0.1131 -0.0309 -0.9931
vn -0.0597 -0.0641 -0.9961
vn -0.6536 -0.0431 -0.7556
vn -0.6320 -0.0804 -0.7708
vn -0.9411 -0.0493 -0.3346
vn -0.9555 -0.0721 -0.2859
vn -0.9819 -0.0335 0.1864
vn -0.9798 -0.0826 0.1821
vn -0.7851 0.0181 0.6190
vn -0.7899 -0.0942 0.6059
vn -0.9185 0.1985 -0.3420
vn -0.9268 0.2487 -0.2813
vn -0.9709 0.1992 0.1327
vn -0.9748 0.1699 0.1444
vn -0.3766 0.0059 0.9263
vn -0.3948 -0.0349 0.9181
vn 0.1938 -0.0033 0.9810
vn 0.2135 -0.0969 0.9721
vn -0.6656 0.1618 0.7285
vn -0.7468 0.1213 0.6539
vn -0.4103 0.1393 0.9012
vn -0.4339 0.0892 0.8965
vn -0.1629 0.1446 0.9760
vn 0.0442 0.1093 0.9930
vn 0.5979 0.2278 0.7685
vn 0.6472 0.1158 0.7535
vn 0.7323 0.2958 0.6133
vn 0.8668 0.1373 0.4792
vn 0.7800 0.4515 0.4333
vn 0.9564 0.1794 0.2303
vn 0.8516 0.4180 -0.3161
vn 0.9166 0.1670 -0.3632
vn 0.5191 0.1981 -0.8314
vn 0.4717 0.4182 -0.7763
vn -0.0660 0.4801 -0.8747
vn -0.1204 0.2960 -0.9475
vn -0.6477 0.4056 -0.6449
vn -0.6451 0.2602 -0.7184
vn 0.5115 0.3262 -0.7949
vn 0.8065 0.4126 -0.4233
vn 0.1038 0.3424 -0.9338
vn 0.0695 0.3731 -0.9252
vn -0.2745 0.1489 -0.9500
vn -0.4233 0.3184 -0.8482
vn 0.5597 0.4844 -0.6723
vn 0.7836 0.4799 -0.3946
vn -0.8652 0.2069 -0.4566
vn -0.5964 0.0823 -0.7985
vn -0.3437 -0.2224 -0.9123
vn -0.7359 -0.1964 -0.6480
vn -0.9683 0.0399 -0.2464
vn -0.9706 0.1674 0.1729
vn -0.6413 0.1412 0.7541
vn -0.9796 -0.1667 0.1121
vn -0.6440 -0.1827 0.7428
vn -0.3767 0.1576 0.9128
vn -0.2669 0.1762 0.9474
vn -0.4001 -0.1357 0.9064
vn -0.2968 -0.0692 0.9524
vn 0.3477 0.2069 0.9145
vn 0.2574 -0.1082 0.9602
vn 0.5967 0.2585 0.7596
vn 0.5353 -0.1288 0.8347
vn 0.6542 0.2024 0.7287
vn 0.6302 -0.2339 0.7403
vn 0.9365 0.3504 -0.0117
vn 0.9489 0.3153 -0.0006
vn 0.9376 0.1345 0.3206
vn 0.9783 0.0571 0.1991
vn 0.9121 -0.2814 0.2981
vn 0.9476 -0.2463 0.2035
vn 0.5118 -0.8482 0.1360
vn 0.5293 -0.6648 0.5272
vn 0.2317 -0.5292 0.8162
vn 0.0731 -0.8696 0.4883
vn 0.7360 -0.6384 0.2251
vn -0.2889 -0.4469 0.8466
vn -0.4286 -0.4300 0.7945
vn -0.6134 -0.4816 0.6258
vn -0.8553 -0.5160 0.0470
vn -0.9198 -0.3075 -0.2437
vn -0.6684 -0.5185 -0.5333
vn -0.3228 -0.6389 -0.6983
vn -0.4761 -0.8215 -0.3135
vn -0.0717 -0.9059 -0.4175
vn 0.3641 -0.9290 -0.0656
vn -0.1132 -0.9904 0.0789
vn 0.7728 -0.6323 0.0534
vn 0.8041 -0.5851 -0.1046
vn -0.3581 -0.6585 0.6619
vn -0.5608 -0.7558 0.3379
vn 0.4182 0.6302 -0.6542
vn 0.0373 0.3642 -0.9305
vn -0.1993 -0.1221 -0.9723
vn -0.2169 -0.5447 -0.8101
vn 0.0156 -0.8531 -0.5215
vn 0.4520 -0.8843 -0.1170
vn 0.7610 -0.6193 0.1929
vn 0.9156 -0.2511 0.3138
vn 0.9494 0.1379 0.2822
vn 0.8936 0.4351 0.1102
vn 0.7246 0.6411 -0.2527
vn 0.3670 0.1658 -0.9153
vn 0.2330 -0.1722 -0.9571
vn 0.1722 -0.4831 -0.8584
vn 0.2745 -0.7154 -0.6426
vn 0.5639 -0.7324 -0.3814
vn 0.8426 -0.5135 -0.1620
vn 0.9718 -0.2188 -0.0880
vn 0.9944 0.0634 -0.0836
vn 0.9487 0.2734 -0.1586
vn 0.8315 0.3721 -0.4123
vn 0.6138 0.3413 -0.7119
vn 0.7459 -0.0164 -0.6658
vn 0.6148 -0.0631 -0.7861
vn 0.5773 -0.2351 -0.7819
vn 0.5462 -0.4232 -0.7229
vn 0.6613 -0.4863 -0.5710
vn 0.8191 -0.3412 -0.4611
vn 0.8875 -0.1564 -0.4334
vn 0.8920 0.0638 -0.4474
usemtl Default
s 1
f 1/1/1 2/2/2 3/3/3 4/4/4
f 5/5/5 1/1/1 4/4/4 6/6/6
f 6/6/6 7/7/7 8/8/8 5/5/5
f 9/9/9 10/10/10 11/11/11 12/12/12
f 13/13/13 9/9/9 12/12/12 14/14/14
f 15/15/15 13/13/13 14/14/14 16/16/16
f 17/17/17 15/15/15 16/16/16 18/18/18
f 19/19/19 17/17/17 18/18/18 20/20/20
f 2/2/2 19/21/19 20/22/20 3/3/3
f 21/23/21 19/21/19 2/2/2 22/24/22
f 22/24/22 2/2/2 1/1/1 23/25/23
f 24/26/24 5/5/5 8/8/8 25/27/25
f 26/28/26 25/27/25 27/29/27 28/30/28
f 29/31/29 27/29/27 10/10/10 9/9/9
f 30/32/30 29/31/29 9/9/9 13/13/13
f 30/32/30 13/13/13 15/15/15 31/33/31
f 32/34/32 17/17/17 33/35/33
f 33/35/33 17/17/17 19/19/19 21/36/21
f 23/25/23 1/1/1 5/5/5 24/26/24
f 31/33/31 15/15/15 17/17/17 32/34/32
f 25/27/25 8/8/8 10/10/10 27/29/27
f 18/18/18 34/37/34 35/38/35 20/20/20
f 7/7/7 11/11/11 10/10/10 8/8/8
f 36/39/36 37/40/37 38/41/38
f 39/42/39 36/39/36 29/31/29 30/32/30
f 39/42/39 30/32/30 31/33/31 40/43/40
f 40/43/40 31/33/31 32/34/32
f 41/44/41 42/45/42 43/46/43
f 40/47/40 32/48/32 42/45/42 41/44/41
f 41/44/41 43/46/43 44/49/44
f 24/26/24 25/27/25 45/50/45
f 45/50/45 25/27/25 26/28/26
f 36/39/36 28/30/28 27/29/27 29/31/29
f 39/42/39 46/51/46 47/52/47
f 40/43/40 46/51/46 39/42/39
f 46/53/46 40/47/40 41/44/41 48/54/48
f 49/55/49 42/45/42 32/48/32 33/56/33
f 50/57/50 43/46/43 42/45/42 49/55/49
f 51/58/51 44/49/44 43/46/43 50/57/50
f 37/59/37 47/60/47 46/53/46 48/54/48
f 37/59/37 48/54/48 38/61/38
f 28/30/28 52/62/52 26/28/26
f 38/41/38 52/62/52 28/30/28 36/39/36
f 52/62/52 38/61/38 48/54/48 26/28/26
f 41/44/41 45/50/45 26/28/26 48/54/48
f 44/49/44 24/26/24 45/50/45 41/44/41
f 47/52/47 37/40/37 36/39/36 39/42/39
f 24/26/24 44/49/44 51/58/51 23/25/23
f 21/23/21 22/24/22 50/63/50
f 22/24/22 51/58/51 50/63/50
f 21/64/21 50/57/50 49/55/49
f 22/24/22 23/25/23 51/58/51
f 21/64/21 49/55/49 33/56/33
f 53/65/53 3/3/3 20/22/20 35/66/35
f 54/67/54 4/4/4 3/3/3 53/65/53
f 55/68/55 6/6/6 4/4/4 54/67/54
f 55/68/55 56/69/56 7/7/7 6/6/6
f 57/70/57 7/7/7 56/69/56
f 11/11/11 7/7/7 57/70/57 58/71/58
f 59/72/59 12/12/12 11/11/11 58/71/58
f 14/14/14 12/12/12 59/72/59 60/73/60
f 61/74/61 16/16/16 14/14/14 60/73/60
f 61/74/61 62/75/62 18/18/18 16/16/16
f 62/75/62 34/37/34 18/18/18
f 63/76/63 64/77/64 65/78/65 66/79/66
f 66/79/66 65/78/65 67/80/67 68/81/68
f 69/82/69 35/38/35 34/37/34 68/81/68
f 69/83/69 70/84/70 71/85/71 72/86/72
f 72/86/72 71/85/71 73/87/73 74/88/74
f 74/88/74 73/87/73 75/89/75 76/90/76
f 76/90/76 75/89/75 77/91/77 78/92/78
f 78/92/78 77/91/77 79/93/79 80/94/80
f 80/94/80 79/93/79 81/95/81 82/96/82
f 83/97/83 84/98/84 85/99/85 86/100/86
f 82/96/82 81/95/81 87/101/87 88/102/88
f 88/102/88 87/101/87 89/103/89 90/104/90
f 90/104/90 89/103/89 64/77/64 63/76/63
f 68/81/68 67/80/67 70/105/70 69/82/69
f 72/86/72 53/65/53 35/66/35 69/83/69
f 74/88/74 54/67/54 53/65/53 72/86/72
f 76/90/76 55/68/55 54/67/54 74/88/74
f 78/92/78 56/69/56 55/68/55 76/90/76
f 80/94/80 57/70/57 56/69/56 78/92/78
f 82/96/82 58/71/58 57/70/57 80/94/80
f 88/102/88 59/72/59 58/71/58 82/96/82
f 90/104/90 60/73/60 59/72/59 88/102/88
f 63/76/63 61/74/61 60/73/60 90/104/90
f 66/79/66 62/75/62 61/74/61 63/76/63
f 68/81/68 34/37/34 62/75/62 66/79/66
f 86/100/86 85/99/85 91/106/91 92/107/92
f 92/107/92 91/106/91 93/108/93 94/109/94
f 94/109/94 93/108/93 95/110/95 96/111/96
f 96/111/96 95/110/95 97/112/97 98/113/98
f 98/113/98 97/112/97 99/114/99 100/115/100
f 100/115/100 99/114/99 101/116/101 102/117/102
f 102/117/102 101/116/101 103/118/103 104/119/104
f 105/120/105 71/85/71 70/84/70 104/121/104
f 105/120/105 106/122/106 107/123/107 108/124/108
f 108/124/108 107/123/107 109/125/109 110/126/110
f 110/126/110 109/125/109 84/98/84 83/97/83
f 104/121/104 103/127/103 106/122/106 105/120/105
f 108/124/108 73/87/73 71/85/71 105/120/105
f 110/126/110 75/89/75 73/87/73 108/124/108
f 83/97/83 77/91/77 75/89/75 110/126/110
f 86/100/86 79/93/79 77/91/77 83/97/83
f 92/107/92 81/95/81 79/93/79 86/100/86
f 94/109/94 87/101/87 81/95/81 92/107/92
f 96/111/96 89/103/89 87/101/87 94/109/94
f 98/113/98 64/77/64 89/103/89 96/111/96
f 100/115/100 65/78/65 64/77/64 98/113/98
f 102/117/102 67/80/67 65/78/65 100/115/100
f 104/119/104 70/105/70 67/80/67 102/117/102
f 111/128/111 106/122/106 103/127/103 112/129/112
f 113/130/113 107/123/107 106/122/106 111/128/111
f 113/130/113 114/131/114 115/132/115 116/133/116
f 111/128/111 117/134/117 114/131/114 113/130/113
f 116/133/116 109/125/109 107/123/107 113/130/113
f 112/129/112 118/135/118 117/134/117 111/128/111
f 109/125/109 116/133/116 119/136/119 84/98/84
f 119/136/119 116/133/116 115/132/115 120/137/120
f 115/132/115 121/138/121 122/139/122 120/137/120
f 123/140/123 119/136/119 120/137/120 122/139/122
f 84/98/84 119/136/119 123/140/123 85/99/85
f 124/141/124 125/142/125 91/106/91 85/99/85
f 125/142/125 124/141/124 126/143/126 127/144/127
f 93/108/93 91/106/91 125/142/125 128/145/128
f 93/108/93 128/145/128 129/146/129 95/110/95
f 128/145/128 125/142/125 127/144/127 130/147/130
f 129/146/129 128/145/128 130/147/130 131/148/131
f 129/146/129 132/149/132 97/112/97 95/110/95
f 132/149/132 129/146/129 131/148/131 133/150/133
f 99/114/99 97/112/97 132/149/132 134/151/134
f 134/151/134 132/149/132 133/150/133 135/152/135
f 134/151/134 136/153/136 101/116/101 99/114/99
f 135/152/135 137/154/137 136/153/136 134/151/134
f 101/116/101 138/155/138 112/156/112 103/118/103
f 112/156/112 138/155/138 139/157/139 118/158/118
f 101/116/101 136/153/136 140/159/140 138/155/138
f 138/155/138 140/159/140 141/160/141 139/157/139
f 140/159/140 136/153/136 137/154/137 142/161/142
f 143/162/143 141/160/141 140/159/140 142/161/142
f 144/163/144 145/164/145 146/165/146 147/166/147
f 142/161/142 137/154/137 145/164/145 148/167/148
f 137/154/137 135/152/135 146/165/146 145/164/145
f 146/165/146 135/152/135 133/150/133
f 146/165/146 133/150/133 131/148/131 149/168/149
f 149/168/149 131/148/131 130/147/130 150/169/150
f 130/147/130 127/144/127 151/170/151 150/169/150
f 127/144/127 126/143/126 152/171/152 151/170/151
f 124/141/124 85/99/85 123/140/123 126/143/126
f 123/140/123 122/139/122 153/172/153
f 153/172/153 152/171/152 126/143/126 123/140/123
f 154/173/154 153/172/153 122/139/122
f 154/173/154 122/139/122 121/138/121 155/174/155
f 154/173/154 156/175/156 152/171/152 153/172/153
f 156/175/156 154/173/154 155/174/155 157/176/157
f 158/177/158 159/178/159 156/175/156 157/176/157
f 144/163/144 158/179/158 160/180/160 161/181/161
f 147/166/147 159/182/159 158/179/158 144/163/144
f 161/181/161 148/167/148 145/164/145 144/163/144
f 142/161/142 148/167/148 161/181/161 143/162/143
f 161/181/161 160/180/160 143/162/143
f 146/165/146 149/168/149 147/166/147
f 149/168/149 150/169/150 162/183/162 147/166/147
f 162/183/162 150/169/150 151/170/151 163/184/163
f 162/183/162 163/184/163 159/182/159 147/166/147
f 163/185/163 152/171/152 156/175/156 159/178/159
f 152/171/152 163/185/163 151/170/151
f 164/186/164 165/187/165 114/131/114 117/134/117
f 165/187/165 115/132/115 114/131/114
f 121/138/121 115/132/115 165/187/165 166/188/166
f 155/174/155 121/138/121 166/188/166 167/189/167
f 157/176/157 155/174/155 167/189/167 168/190/168
f 158/177/158 157/176/157 168/190/168 169/191/169
f 158/179/158 169/192/169 170/193/170 160/180/160
f 171/194/171 143/162/143 160/180/160 170/193/170
f 141/160/141 143/162/143 171/194/171 172/195/172
f 141/160/141 172/195/172 173/196/173 139/157/139
f 174/197/174 118/158/118 139/157/139 173/196/173
f 174/198/174 164/186/164 117/134/117 118/135/118
f 166/188/166 165/187/165 175/199/175 176/200/176
f 167/189/167 166/188/166 176/200/176 177/201/177
f 168/190/168 167/189/167 177/201/177 178/202/178
f 169/191/169 168/190/168 178/202/178 179/203/179
f 170/193/170 169/192/169 179/204/179 180/205/180
f 181/206/181 171/194/171 170/193/170 180/205/180
f 182/207/182 172/195/172 171/194/171 181/206/181
f 182/207/182 183/208/183 173/196/173 172/195/172
f 183/208/183 184/209/184 174/197/174 173/196/173
f 164/186/164 174/198/174 184/210/184 185/211/185
f 165/187/165 164/186/164 185/211/185 175/199/175
f 175/199/175 185/211/185 186/212/186 187/213/187
f 175/199/175 187/213/187 188/214/188 176/200/176
f 188/214/188 189/215/189 177/201/177 176/200/176
f 179/203/179 178/202/178 189/215/189 190/216/190
f 189/215/189 178/202/178 177/201/177
f 180/205/180 179/204/179 190/217/190 191/218/191
f 181/206/181 180/205/180 191/218/191 192/219/192
f 181/206/181 192/219/192 193/220/193 182/207/182
f 193/220/193 184/209/184 183/208/183 182/207/182
f 185/211/185 184/210/184 193/221/193 186/212/186
f 191/222/191 186/212/186 193/221/193 192/223/192
f 191/222/191 188/214/188 187/213/187 186/212/186
f 190/216/190 189/215/189 188/214/188 191/222/191
