# Blender v2.78 (sub 0) OBJ File: ''
# www.blender.org
mtllib С разверткой.mtl
o RetopoGroup1
v 0.669033 -7.377396 0.689177
v 0.619646 -7.436903 0.135640
v 0.647524 -5.655952 -0.159693
v 0.738059 -5.540521 0.435589
v 0.354869 -5.731263 -0.530040
v 0.315103 -7.515052 -0.244000
v -0.066204 -5.772409 -0.639651
v -0.061129 -7.497046 -0.336869
v -0.501532 -5.733271 -0.385541
v -0.533584 -7.460784 -0.059400
v -0.692797 -7.411954 0.361856
v -0.723840 -5.661981 0.102038
v -0.694659 -7.362760 0.835383
v -0.673850 -5.631116 0.664580
v -0.386333 -5.575540 1.076146
v -0.412726 -7.299794 1.301889
v 0.101013 -5.594917 1.225403
v 0.064326 -7.298378 1.421766
v 0.496544 -5.565327 0.992270
v 0.487668 -7.301495 1.143731
v -0.098835 -5.603298 -0.766413
v -0.632576 -5.511969 -0.479126
v -0.879208 -5.437702 0.078329
v -0.818602 -5.318559 0.691165
v -0.483021 -5.304015 1.155948
v 0.095485 -5.294312 1.316252
v 0.580676 -5.364559 1.016536
v 0.395700 -5.573171 -0.628482
v 0.693060 -5.437396 -0.244666
v 0.788183 -5.330441 0.367570
v 0.914861 -3.528212 0.204409
v 0.721908 -3.557092 -0.409040
v 0.402952 -3.535274 -0.733021
v 0.306970 -1.605278 -0.897373
v 0.679131 -1.534899 -0.602475
v -0.148188 -3.560884 -0.873055
v -0.177513 -1.543602 -0.935808
v -0.622662 -3.489780 -0.628078
v -0.654315 -1.554005 -0.699974
v -0.970152 -3.411284 -0.008393
v -0.956553 -1.480953 -0.089396
v -0.884422 -3.322164 0.618464
v -0.874450 -1.497367 0.554535
v -0.554101 -3.284902 1.178843
v -0.461718 -1.329403 1.131485
v 0.195092 -3.279677 1.364897
v 0.103449 -1.344712 1.245475
v 0.763932 -3.481064 0.867438
v 0.757506 -1.357621 0.718539
v 0.845912 -1.485198 -0.067188
v -0.127098 -1.013035 -0.843009
v 0.236296 -1.047392 -0.808324
v -0.482378 -0.960171 -0.635888
v -0.728159 -0.824814 -0.112158
v -0.702347 -0.709432 0.396228
v -0.390920 -0.606588 0.893983
v 0.207913 -0.674662 1.022707
v 0.648737 -0.802791 0.602831
v 0.743800 -0.991743 -0.054840
v 0.553851 -1.029891 -0.539017
v 0.793505 1.223717 -0.329912
v 0.652927 1.165671 -0.846465
v 0.353650 1.128199 -1.160153
v -0.067992 1.112012 -1.236412
v -0.467165 1.188785 -0.992170
v -0.688314 1.347558 -0.526663
v -0.679647 1.478057 -0.056248
v -0.361346 1.549057 0.493500
v 0.181848 1.491535 0.648159
v 0.643713 1.357386 0.286950
v 0.687345 3.522597 0.028204
v 0.185587 3.310109 0.463423
v 0.824564 3.653641 -0.630485
v 0.681102 3.425462 -1.097813
v 0.382063 3.422930 -1.415217
v 0.024791 3.410675 -1.496607
v -0.350085 3.486689 -1.327364
v -0.594619 3.668225 -0.980603
v -0.675586 3.859821 -0.581671
v -0.415548 3.660900 0.208118
v 0.526770 3.805805 -1.569523
v 0.013571 3.803659 -1.735892
v -0.365181 3.857792 -1.607829
v -0.677602 4.001626 -1.253665
v -0.847004 4.196252 -0.769525
v -0.955828 4.454310 -0.230871
v -0.445051 3.951119 0.663357
v -0.964907 4.794448 0.428646
v -0.188477 3.464210 0.837351
v 0.049990 3.421082 0.808419
v 0.540209 3.637225 0.720368
v 0.804652 3.819553 -1.296641
v 1.053355 3.960386 -0.868379
v 1.219450 4.301110 -0.321632
v 1.082793 4.738248 0.654360
v 1.143090 4.547058 -1.068856
v 1.320284 4.769550 -0.574835
v 0.821674 4.361444 -1.425465
v 0.495313 4.257833 -1.657254
v 0.041536 4.248867 -1.726221
v -0.311137 4.288500 -1.614486
v -0.636525 4.417222 -1.339281
v -0.812132 4.591579 -0.931689
v -1.043785 4.872350 -0.395809
v -1.152781 5.229098 0.178697
v 1.442562 5.288400 0.332876
v 0.740190 3.725240 0.950468
v 0.702075 3.954882 1.593315
v 1.119687 4.881501 1.325696
v 0.483519 4.138176 2.236884
v 0.886912 4.857145 1.869953
v 1.407745 5.653428 1.062969
v 1.012927 5.392796 1.585435
v -0.229848 4.805972 -1.535500
v 0.074777 4.732273 -1.627646
v -0.442748 4.916517 -1.344071
v -0.606140 5.115245 -1.037603
v -0.651677 5.441135 -0.606293
v -0.847334 5.815875 -0.000922
v -0.421629 5.883331 -0.024752
v 0.376432 4.748343 -1.557810
v 0.601479 4.819309 -1.377346
v 0.804092 5.037298 -1.092426
v 1.109401 5.242091 -0.691192
v 0.853129 5.370487 -0.667516
v 1.273946 5.772270 0.112203
v 0.865735 5.852014 -0.043383
v 1.321707 6.213696 0.800388
v 1.193875 6.234339 0.655520
v 1.138312 6.118443 1.793501
v 1.021636 6.714726 1.452601
v 0.884074 6.524609 2.197297
v 0.872795 5.885534 2.110838
v 0.782042 6.913226 1.793252
v 0.917851 6.730384 1.238296
v 0.703218 6.941325 1.604001
v -0.444765 7.596120 -0.449365
v -0.529911 7.589981 -0.848883
v -0.474494 7.588018 -1.203595
v -0.359072 7.535896 -1.486545
v -0.128654 7.507815 -1.684028
v 0.108089 7.464807 -1.775793
v 0.372974 7.501798 -1.734096
v 0.558152 7.534575 -1.596533
v 0.735826 7.564860 -1.294826
v 0.865132 6.250054 -0.767775
v 0.887945 6.507276 -0.281730
v 0.721920 7.600060 -0.470045
v 1.020702 6.949914 0.519560
v 0.372805 7.665956 0.346634
v 0.722023 7.237239 1.041014
v 0.432105 7.675450 0.719898
v 0.558438 7.189544 1.189703
v 0.104804 7.315318 1.085406
v 0.120477 7.056573 2.014503
v 0.126653 6.985348 1.646553
v 0.109692 6.640756 2.445045
v -0.479395 6.970637 1.873829
v -0.673542 6.541858 2.253231
v -0.399609 6.957231 1.556286
v -0.332698 7.166686 1.081118
v -0.268317 7.675599 0.718075
v -0.204903 7.752839 0.340211
v -0.177020 7.562791 -0.115251
v -0.916081 6.036078 0.338321
v -0.697854 7.110949 0.485115
v -0.633350 7.209893 0.942100
v -0.938072 6.378599 1.086455
v -0.866437 6.617831 1.729608
v -1.191406 5.579181 0.491451
v -1.149091 6.024251 1.211723
v -0.941957 6.335979 1.851415
v -0.996516 5.038661 0.716113
v -1.052557 5.563860 1.395685
v -0.808685 6.050059 2.002552
v -0.643175 4.003263 1.062257
v -0.837686 4.728782 1.410203
v -0.705495 4.866745 1.860217
v -0.663256 4.980988 2.851037
v -0.249118 4.156382 2.224914
v 0.193865 3.373523 1.086050
v 0.230647 3.616837 1.594218
v -0.129208 3.397623 1.061512
v -0.159107 3.705020 1.581155
v 0.185618 3.996876 2.317150
v 0.843808 4.937782 2.914130
v -0.700446 6.483520 3.071507
v 0.878301 6.459960 3.114365
v 0.869075 5.509915 4.679899
v 0.882818 4.728871 4.480802
v 0.113977 4.712674 5.959366
v 0.179777 4.525099 5.957212
v -0.552403 5.522197 4.659428
v -0.133231 4.658740 5.978715
v -0.152555 4.511373 5.951610
v -0.565084 4.739704 4.503899
v 0.062902 6.475953 3.165288
vt 0.0621 0.2144
vt 0.0795 0.1935
vt 0.1504 0.2464
vt 0.1339 0.2711
vt 0.1634 0.2275
vt 0.0927 0.1740
vt 0.1749 0.2094
vt 0.1046 0.1598
vt 0.1889 0.1890
vt 0.1193 0.1379
vt 0.1309 0.1193
vt 0.2040 0.1670
vt 0.1475 0.1034
vt 0.2171 0.1418
vt 0.2307 0.1188
vt 0.1604 0.0846
vt 0.2395 0.0933
vt 0.1613 0.0629
vt 0.1121 0.2919
vt 0.0940 0.3062
vt 0.0298 0.2507
vt 0.0476 0.2331
vt 0.1832 0.2144
vt 0.2002 0.1947
vt 0.2155 0.1729
vt 0.2324 0.1502
vt 0.2439 0.1257
vt 0.2547 0.0979
vt 0.1206 0.2981
vt 0.1027 0.3196
vt 0.1705 0.2323
vt 0.1600 0.2518
vt 0.1437 0.2758
vt 0.2113 0.3259
vt 0.2291 0.3022
vt 0.2428 0.2862
vt 0.3203 0.3327
vt 0.3096 0.3530
vt 0.2572 0.2641
vt 0.3359 0.3154
vt 0.2734 0.2451
vt 0.3485 0.2933
vt 0.2934 0.2189
vt 0.3679 0.2678
vt 0.3116 0.1952
vt 0.3829 0.2412
vt 0.3284 0.1690
vt 0.4076 0.2171
vt 0.3469 0.1368
vt 0.4240 0.1940
vt 0.1923 0.3518
vt 0.2756 0.4101
vt 0.2515 0.4439
vt 0.1758 0.3861
vt 0.2952 0.3762
vt 0.3594 0.3322
vt 0.3464 0.3491
vt 0.3747 0.3137
vt 0.3968 0.2881
vt 0.4162 0.2670
vt 0.4368 0.2422
vt 0.4544 0.2147
vt 0.2858 0.4552
vt 0.2997 0.4260
vt 0.3157 0.3923
vt 0.3325 0.3685
vt 0.4148 0.4641
vt 0.4322 0.4410
vt 0.4457 0.4220
vt 0.4583 0.4029
vt 0.4743 0.3832
vt 0.4945 0.3624
vt 0.5123 0.3426
vt 0.5308 0.3147
vt 0.5442 0.2878
vt 0.3965 0.4932
vt 0.4933 0.5716
vt 0.4545 0.5849
vt 0.3805 0.5213
vt 0.5261 0.5473
vt 0.5365 0.5177
vt 0.5522 0.4976
vt 0.5647 0.4802
vt 0.5807 0.4619
vt 0.6014 0.4453
vt 0.6223 0.4296
vt 0.6342 0.3787
vt 0.6256 0.3361
vt 0.5696 0.5138
vt 0.5842 0.4940
vt 0.5958 0.4805
vt 0.6131 0.4653
vt 0.6354 0.4488
vt 0.6630 0.4331
vt 0.6656 0.3696
vt 0.6991 0.4146
vt 0.6527 0.3414
vt 0.6441 0.3323
vt 0.4722 0.6098
vt 0.4426 0.6015
vt 0.5583 0.5289
vt 0.5500 0.5529
vt 0.5467 0.5853
vt 0.5333 0.6381
vt 0.5771 0.5639
vt 0.5726 0.5894
vt 0.5822 0.5409
vt 0.5887 0.5230
vt 0.6002 0.5059
vt 0.6112 0.4929
vt 0.6273 0.4801
vt 0.6472 0.4677
vt 0.6766 0.4527
vt 0.7104 0.4406
vt 0.5699 0.6387
vt 0.4756 0.6271
vt 0.4680 0.6623
vt 0.5240 0.6744
vt 0.4523 0.6987
vt 0.5048 0.7020
vt 0.5685 0.6793
vt 0.5398 0.7016
vt 0.6313 0.5092
vt 0.6193 0.5204
vt 0.6442 0.5006
vt 0.6630 0.4928
vt 0.6903 0.4874
vt 0.7279 0.4702
vt 0.7244 0.4900
vt 0.6115 0.5339
vt 0.6063 0.5485
vt 0.6056 0.5699
vt 0.5961 0.5958
vt 0.6095 0.5976
vt 0.5964 0.6409
vt 0.6151 0.6335
vt 0.5998 0.6815
vt 0.6075 0.6754
vt 0.5730 0.7264
vt 0.6110 0.7255
vt 0.5831 0.7622
vt 0.5510 0.7406
vt 0.6155 0.7496
vt 0.6209 0.7172
vt 0.6254 0.7440
vt 0.7744 0.5396
vt 0.7619 0.5575
vt 0.7525 0.5700
vt 0.7423 0.5801
vt 0.7330 0.5909
vt 0.7244 0.5994
vt 0.7123 0.6054
vt 0.7068 0.6131
vt 0.7010 0.6255
vt 0.6465 0.6160
vt 0.6453 0.6409
vt 0.6926 0.6565
vt 0.6448 0.6854
vt 0.6923 0.6976
vt 0.6524 0.7177
vt 0.6821 0.7139
vt 0.6517 0.7300
vt 0.6760 0.7437
vt 0.6336 0.7829
vt 0.6485 0.7683
vt 0.6097 0.8055
vt 0.6608 0.8039
vt 0.6466 0.8350
vt 0.6721 0.7886
vt 0.6921 0.7654
vt 0.7123 0.7335
vt 0.7207 0.7128
vt 0.7308 0.6861
vt 0.7897 0.5292
vt 0.7462 0.4635
vt 0.7893 0.4899
vt 0.8091 0.5192
vt 0.8065 0.4795
vt 0.8179 0.5044
vt 0.8207 0.4772
vt 0.7826 0.4464
vt 0.8241 0.4546
vt 0.8106 0.4322
vt 0.8319 0.4421
vt 0.8283 0.4153
vt 0.7335 0.4392
vt 0.7728 0.4285
vt 0.8053 0.4195
vt 0.7195 0.4111
vt 0.7643 0.4051
vt 0.8045 0.4026
vt 0.6868 0.3590
vt 0.7323 0.3700
vt 0.7555 0.3483
vt 0.8157 0.3311
vt 0.7197 0.3075
vt 0.4409 0.6183
vt 0.4373 0.6509
vt 0.6509 0.3181
vt 0.6588 0.3312
vt 0.6742 0.3030
vt 0.6844 0.3196
vt 0.4327 0.6980
vt 0.7107 0.2881
vt 0.4814 0.7593
vt 0.7184 0.2741
vt 0.7564 0.2569
vt 0.7381 0.6024
vt 0.7526 0.6119
vt 0.7599 0.6285
vt 0.7592 0.6496
vt 0.7499 0.6718
vt 0.8601 0.3952
vt 0.5531 0.8031
vt 0.8047 0.2528
vt 0.4829 0.8595
vt 0.4443 0.8413
vt 0.4365 0.9257
vt 0.4264 0.9245
vt 0.5231 0.9223
vt 0.4385 0.9385
vt 0.9565 0.2635
vt 0.9602 0.2696
vt 0.9123 0.3289
vt 0.8943 0.2967
vt 0.4308 0.9421
vt 0.9531 0.2479
vt 0.8770 0.2316
vt 0.6110 0.8660
vt 0.5800 0.8365
vt 0.1124 0.0459
vt 0.1406 0.0459
vt 0.0851 0.0634
vt 0.0749 0.0881
vt 0.1066 0.1232
vt 0.0808 0.1084
vn 0.7307 -0.6580 0.1819
vn 0.7052 -0.6804 -0.1993
vn 0.9185 -0.2145 -0.3320
vn 0.9787 -0.1508 0.1393
vn 0.5584 -0.3423 -0.7556
vn 0.4017 -0.7447 -0.5330
vn -0.1165 -0.4088 -0.9051
vn -0.1270 -0.7165 -0.6859
vn -0.7066 -0.3800 -0.5969
vn -0.5922 -0.6856 -0.4233
vn -0.7306 -0.6819 -0.0360
vn -0.9401 -0.3164 -0.1271
vn -0.7201 -0.6204 0.3106
vn -0.9145 -0.2194 0.3399
vn -0.5685 -0.1606 0.8068
vn -0.4609 -0.5399 0.7043
vn 0.1451 -0.1051 0.9838
vn 0.1141 -0.5420 0.8325
vn 0.7535 -0.1217 0.6460
vn 0.5927 -0.5719 0.5671
vn -0.1238 -0.3410 -0.9319
vn -0.7167 -0.3183 -0.6204
vn -0.9479 -0.2932 -0.1246
vn -0.9068 -0.2279 0.3546
vn -0.5714 -0.1964 0.7968
vn 0.1484 -0.1613 0.9757
vn 0.7912 -0.1633 0.5894
vn 0.5432 -0.2879 -0.7887
vn 0.8961 -0.1946 -0.3988
vn 0.9869 -0.1538 0.0488
vn 0.9995 -0.0237 -0.0218
vn 0.8696 -0.0421 -0.4919
vn 0.4870 -0.0505 -0.8719
vn 0.4057 0.0641 -0.9117
vn 0.8178 0.1050 -0.5658
vn -0.1339 -0.0526 -0.9896
vn -0.1744 0.0801 -0.9814
vn -0.7069 -0.0428 -0.7060
vn -0.7038 0.1066 -0.7023
vn -0.9849 -0.0237 -0.1716
vn -0.9712 0.1463 -0.1880
vn -0.9393 -0.0009 0.3429
vn -0.9350 0.1389 0.3264
vn -0.5835 0.0121 0.8120
vn -0.5515 0.1894 0.8124
vn 0.2279 0.0234 0.9734
vn 0.2194 0.1769 0.9594
vn 0.8521 0.0016 0.5233
vn 0.8745 0.1370 0.4652
vn 0.9870 0.1161 -0.1112
vn -0.1979 0.0193 -0.9800
vn 0.4010 0.0264 -0.9156
vn -0.7234 0.0869 -0.6849
vn -0.9711 0.1377 -0.1950
vn -0.9425 0.1729 0.2858
vn -0.5699 0.2355 0.7872
vn 0.2883 0.2308 0.9293
vn 0.8738 0.1437 0.4645
vn 0.9898 0.1065 -0.0945
vn 0.8282 0.0670 -0.5564
vn 0.9987 -0.0232 -0.0437
vn 0.8569 -0.0882 -0.5078
vn 0.4602 -0.1349 -0.8775
vn -0.1803 -0.1387 -0.9738
vn -0.7304 -0.0869 -0.6775
vn -0.9699 -0.0201 -0.2427
vn -0.9748 0.0496 0.2175
vn -0.6289 0.1223 0.7678
vn 0.2219 0.1367 0.9654
vn 0.8622 0.0605 0.5029
vn 0.8838 -0.3024 0.3570
vn 0.2325 -0.5474 0.8039
vn 0.9362 -0.3511 -0.0185
vn 0.8503 -0.2803 -0.4455
vn 0.4673 -0.3195 -0.8243
vn -0.1139 -0.3273 -0.9380
vn -0.6941 -0.2870 -0.6601
vn -0.9382 -0.2316 -0.2571
vn -0.9573 -0.2776 0.0805
vn -0.8652 -0.3192 0.3867
vn 0.4800 -0.3094 -0.8209
vn -0.0657 -0.2840 -0.9565
vn -0.5751 -0.2566 -0.7768
vn -0.8729 -0.2266 -0.4321
vn -0.9511 -0.2761 -0.1381
vn -0.9362 -0.3489 0.0424
vn -0.8730 -0.4862 0.0389
vn -0.9229 -0.3782 0.0725
vn -0.5913 -0.8004 -0.0979
vn 0.0182 -0.9981 -0.0579
vn 0.6695 -0.7428 0.0021
vn 0.7692 -0.3700 -0.5210
vn 0.8921 -0.4047 -0.2008
vn 0.9190 -0.3849 0.0855
vn 0.9161 -0.3746 0.1428
vn 0.8517 0.0570 -0.5210
vn 0.9712 -0.0029 -0.2383
vn 0.6891 0.0637 -0.7218
vn 0.4140 0.0571 -0.9084
vn -0.0406 0.0856 -0.9955
vn -0.4782 0.1065 -0.8717
vn -0.7869 0.1113 -0.6069
vn -0.9126 0.1007 -0.3963
vn -0.9634 0.0526 -0.2628
vn -0.9897 0.0053 -0.1429
vn 0.9972 -0.0648 -0.0361
vn 0.7750 -0.6241 -0.0996
vn 0.7735 -0.5511 0.3130
vn 0.9202 -0.2604 0.2923
vn 0.5074 -0.1623 0.8462
vn 0.8268 -0.3082 0.4704
vn 0.9800 -0.0360 0.1955
vn 0.9103 -0.1148 0.3977
vn -0.4675 0.0964 -0.8787
vn -0.0518 0.0921 -0.9944
vn -0.7487 0.1275 -0.6504
vn -0.8919 0.1717 -0.4184
vn -0.9243 0.2707 -0.2691
vn -0.7267 0.4207 -0.5430
vn -0.7320 0.2513 -0.6332
vn 0.3775 0.1174 -0.9185
vn 0.6396 0.1751 -0.7485
vn 0.7901 0.2270 -0.5694
vn 0.6577 0.5275 -0.5376
vn 0.7867 0.4418 -0.4310
vn 0.7500 0.5151 -0.4150
vn 0.8344 0.3894 -0.3901
vn 0.8474 0.5061 -0.1604
vn 0.7658 0.5367 -0.3543
vn 0.9136 0.0398 0.4047
vn 0.7880 0.6154 0.0155
vn 0.7862 0.5007 0.3620
vn 0.9636 -0.0922 0.2509
vn 0.5429 0.8082 0.2281
vn 0.7618 0.6475 0.0172
vn 0.3986 0.9117 0.0991
vn -0.6771 0.7241 0.1308
vn -0.7243 0.6887 0.0319
vn -0.6655 0.7074 -0.2379
vn -0.5966 0.6267 -0.5013
vn -0.3640 0.6213 -0.6939
vn -0.0590 0.4776 -0.8766
vn 0.2845 0.5277 -0.8003
vn 0.5287 0.6178 -0.5820
vn 0.6993 0.6550 -0.2860
vn 0.9951 0.0184 -0.0964
vn 0.9879 0.1183 -0.0998
vn 0.6542 0.7541 -0.0581
vn 0.9342 0.3565 0.0084
vn 0.4280 0.9026 -0.0449
vn 0.6770 0.6437 0.3569
vn 0.3794 0.8637 0.3317
vn 0.3369 0.7709 0.5405
vn -0.0293 0.7756 0.6305
vn 0.0395 0.9323 0.3593
vn -0.0034 0.9855 0.1695
vn 0.0259 0.9179 0.3958
vn -0.4251 0.8809 0.2080
vn -0.7472 0.5471 0.3772
vn -0.4478 0.8844 0.1315
vn -0.3620 0.7025 0.6127
vn -0.3951 0.8469 0.3559
vn -0.4169 0.8925 -0.1718
vn -0.4957 0.8600 -0.1206
vn -0.9154 0.3704 -0.1576
vn -0.8895 0.3960 -0.2278
vn -0.7713 0.5514 0.3177
vn -0.8923 0.4504 -0.0295
vn -0.7963 0.6004 0.0733
vn -0.9871 0.0982 -0.1263
vn -0.9848 0.1537 0.0805
vn -0.9236 0.1655 0.3457
vn -0.9491 -0.3009 0.0925
vn -0.9395 -0.1875 0.2866
vn -0.9403 -0.0706 0.3328
vn -0.8622 -0.4977 0.0943
vn -0.9207 -0.2919 0.2591
vn -0.8056 -0.3611 0.4697
vn -0.7352 -0.6759 0.0515
vn -0.4628 -0.2116 0.8608
vn 0.2227 -0.9658 0.1327
vn 0.1825 -0.8757 0.4471
vn -0.4327 -0.8952 0.1064
vn -0.4962 -0.7622 0.4156
vn 0.0762 -0.3753 0.9238
vn 0.7128 -0.7013 0.0055
vn -0.7010 0.6721 0.2383
vn 0.6863 0.6838 0.2478
vn 0.7105 0.5224 0.4715
vn 0.7376 -0.6717 0.0687
vn 0.3765 0.3804 0.8447
vn 0.4734 -0.6845 0.5544
vn -0.6976 0.5493 0.4601
vn -0.4581 0.3013 0.8363
vn -0.5133 -0.6719 0.5339
vn -0.7236 -0.6896 0.0287
vn -0.0016 0.9360 0.3520
usemtl Default
s 1
f 1/1/1 2/2/2 3/3/3 4/4/4
f 5/5/5 3/3/3 2/2/2 6/6/6
f 7/7/7 5/5/5 6/6/6 8/8/8
f 9/9/9 7/7/7 8/8/8 10/10/10
f 10/10/10 11/11/11 12/12/12 9/9/9
f 11/11/11 13/13/13 14/14/14 12/12/12
f 15/15/15 14/14/14 13/13/13 16/16/16
f 17/17/17 15/15/15 16/16/16 18/18/18
f 19/19/19 17/20/17 18/21/18 20/22/20
f 20/22/20 1/1/1 4/4/4 19/19/19
f 21/23/21 7/7/7 9/9/9 22/24/22
f 9/9/9 12/12/12 23/25/23 22/24/22
f 23/25/23 12/12/12 14/14/14 24/26/24
f 24/26/24 14/14/14 15/15/15 25/27/25
f 15/15/15 17/17/17 26/28/26 25/27/25
f 19/19/19 27/29/27 26/30/26 17/20/17
f 28/31/28 5/5/5 7/7/7 21/23/21
f 29/32/29 3/3/3 5/5/5 28/31/28
f 30/33/30 4/4/4 3/3/3 29/32/29
f 27/29/27 19/19/19 4/4/4 30/33/30
f 31/34/31 30/33/30 29/32/29 32/35/32
f 33/36/33 34/37/34 35/38/35 32/35/32
f 36/39/36 37/40/37 34/37/34 33/36/33
f 38/41/38 39/42/39 37/40/37 36/39/36
f 40/43/40 41/44/41 39/42/39 38/41/38
f 42/45/42 43/46/43 41/44/41 40/43/40
f 44/47/44 45/48/45 43/46/43 42/45/42
f 46/49/46 47/50/47 45/48/45 44/47/44
f 48/51/48 49/52/49 47/53/47 46/54/46
f 31/34/31 50/55/50 49/52/49 48/51/48
f 32/35/32 35/38/35 50/55/50 31/34/31
f 48/51/48 27/29/27 30/33/30 31/34/31
f 46/54/46 26/30/26 27/29/27 48/51/48
f 44/47/44 25/27/25 26/28/26 46/49/46
f 42/45/42 24/26/24 25/27/25 44/47/44
f 40/43/40 23/25/23 24/26/24 42/45/42
f 38/41/38 22/24/22 23/25/23 40/43/40
f 36/39/36 21/23/21 22/24/22 38/41/38
f 33/36/33 28/31/28 21/23/21 36/39/36
f 32/35/32 29/32/29 28/31/28 33/36/33
f 51/56/51 52/57/52 34/37/34 37/40/37
f 53/58/53 51/56/51 37/40/37 39/42/39
f 39/42/39 41/44/41 54/59/54 53/58/53
f 55/60/55 54/59/54 41/44/41 43/46/43
f 56/61/56 55/60/55 43/46/43 45/48/45
f 57/62/57 56/61/56 45/48/45 47/50/47
f 57/63/57 47/53/47 49/52/49 58/64/58
f 59/65/59 58/64/58 49/52/49 50/55/50
f 60/66/60 59/65/59 50/55/50 35/38/35
f 35/38/35 34/37/34 52/57/52 60/66/60
f 61/67/61 59/65/59 60/66/60 62/68/62
f 62/68/62 60/66/60 52/57/52 63/69/63
f 63/69/63 52/57/52 51/56/51 64/70/64
f 64/70/64 51/56/51 53/58/53 65/71/65
f 65/71/65 53/58/53 54/59/54 66/72/66
f 66/72/66 54/59/54 55/60/55 67/73/67
f 67/73/67 55/60/55 56/61/56 68/74/68
f 68/74/68 56/61/56 57/62/57 69/75/69
f 70/76/70 71/77/71 72/78/72 69/79/69
f 70/76/70 58/64/58 59/65/59 61/67/61
f 69/79/69 57/63/57 58/64/58 70/76/70
f 61/67/61 73/80/73 71/77/71 70/76/70
f 62/68/62 74/81/74 73/80/73 61/67/61
f 63/69/63 75/82/75 74/81/74 62/68/62
f 64/70/64 76/83/76 75/82/75 63/69/63
f 65/71/65 77/84/77 76/83/76 64/70/64
f 66/72/66 78/85/78 77/84/77 65/71/65
f 67/73/67 79/86/79 78/85/78 66/72/66
f 68/74/68 80/87/80 79/86/79 67/73/67
f 69/75/69 72/88/72 80/87/80 68/74/68
f 81/89/81 75/82/75 76/83/76 82/90/82
f 83/91/83 82/90/82 76/83/76 77/84/77
f 83/91/83 77/84/77 78/85/78 84/92/84
f 84/92/84 78/85/78 79/86/79 85/93/85
f 86/94/86 85/93/85 79/86/79 80/87/80
f 80/87/80 87/95/87 88/96/88 86/94/86
f 89/97/89 87/95/87 80/87/80
f 80/87/80 72/88/72 90/98/90 89/97/89
f 91/99/91 90/100/90 72/78/72 71/77/71
f 75/82/75 81/89/81 92/101/92 74/81/74
f 74/81/74 92/101/92 93/102/93 73/80/73
f 73/80/73 93/102/93 94/103/94 71/77/71
f 95/104/95 91/99/91 71/77/71 94/103/94
f 96/105/96 97/106/97 94/103/94 93/102/93
f 93/102/93 92/101/92 98/107/98 96/105/96
f 99/108/99 98/107/98 92/101/92 81/89/81
f 100/109/100 99/108/99 81/89/81 82/90/82
f 82/90/82 83/91/83 101/110/101 100/109/100
f 101/110/101 83/91/83 84/92/84 102/111/102
f 103/112/103 102/111/102 84/92/84 85/93/85
f 103/112/103 85/93/85 86/94/86 104/113/104
f 86/94/86 88/96/88 105/114/105 104/113/104
f 97/106/97 106/115/106 95/104/95 94/103/94
f 95/104/95 107/116/107 91/99/91
f 108/117/108 107/116/107 95/104/95 109/118/109
f 110/119/110 108/117/108 109/118/109 111/120/111
f 112/121/112 109/118/109 95/104/95 106/115/106
f 113/122/113 111/120/111 109/118/109 112/121/112
f 100/109/100 101/110/101 114/123/114 115/124/115
f 116/125/116 114/123/114 101/110/101 102/111/102
f 102/111/102 103/112/103 117/126/117 116/125/116
f 103/112/103 104/113/104 118/127/118 117/126/117
f 118/127/118 104/113/104 105/114/105 119/128/119
f 119/128/119 120/129/120 118/127/118
f 99/108/99 100/109/100 115/124/115 121/130/121
f 121/130/121 122/131/122 98/107/98 99/108/99
f 122/131/122 123/132/123 96/105/96 98/107/98
f 124/133/124 97/106/97 96/105/96 123/132/123
f 125/134/125 124/133/124 123/132/123
f 126/135/126 106/115/106 97/106/97 124/133/124
f 127/136/127 126/135/126 124/133/124 125/134/125
f 126/135/126 128/137/128 112/121/112 106/115/106
f 129/138/129 128/137/128 126/135/126 127/136/127
f 130/139/130 112/121/112 128/137/128 131/140/131
f 130/139/130 113/122/113 112/121/112
f 113/122/113 130/139/130 132/141/132 133/142/133
f 131/140/131 134/143/134 132/141/132 130/139/130
f 135/144/135 131/140/131 128/137/128 129/138/129
f 136/145/136 134/143/134 131/140/131 135/144/135
f 118/127/118 120/129/120 137/146/137 138/147/138
f 138/147/138 139/148/139 117/126/117 118/127/118
f 116/125/116 117/126/117 139/148/139 140/149/140
f 114/123/114 116/125/116 140/149/140 141/150/141
f 115/124/115 114/123/114 141/150/141 142/151/142
f 121/130/121 115/124/115 142/151/142 143/152/143
f 122/131/122 121/130/121 143/152/143 144/153/144
f 122/131/122 144/153/144 145/154/145 123/132/123
f 123/132/123 145/154/145 146/155/146 125/134/125
f 127/136/127 125/134/125 146/155/146 147/156/147
f 146/155/146 145/154/145 148/157/148 147/156/147
f 147/156/147 149/158/149 129/138/129 127/136/127
f 149/158/149 147/156/147 148/157/148 150/159/150
f 149/158/149 151/160/151 135/144/135 129/138/129
f 150/159/150 152/161/152 151/160/151 149/158/149
f 136/145/136 135/144/135 151/160/151 153/162/153
f 154/163/154 153/162/153 151/160/151 152/161/152
f 155/164/155 134/143/134 136/145/136 156/165/156
f 153/162/153 154/163/154 156/165/156 136/145/136
f 155/164/155 157/166/157 132/141/132 134/143/134
f 158/167/158 159/168/159 157/166/157 155/164/155
f 156/165/156 160/169/160 158/167/158 155/164/155
f 160/169/160 156/165/156 154/163/154 161/170/161
f 161/170/161 154/163/154 152/161/152 162/171/162
f 162/171/162 152/161/152 150/159/150 163/172/163
f 148/157/148 164/173/164 163/172/163 150/159/150
f 120/129/120 119/128/119 137/146/137
f 164/174/164 137/146/137 119/128/119 165/175/165
f 166/176/166 163/177/163 164/174/164 165/175/165
f 166/176/166 167/178/167 162/179/162 163/177/163
f 162/179/162 167/178/167 161/180/161
f 165/175/165 168/181/168 167/178/167 166/176/166
f 161/180/161 167/178/167 168/181/168 160/182/160
f 169/183/169 158/184/158 160/182/160 168/181/168
f 158/184/158 169/183/169 159/185/159
f 170/186/170 165/175/165 119/128/119 105/114/105
f 165/175/165 170/186/170 171/187/171 168/181/168
f 172/188/172 169/183/169 168/181/168 171/187/171
f 173/189/173 170/186/170 105/114/105 88/96/88
f 174/190/174 171/187/171 170/186/170 173/189/173
f 175/191/175 172/188/172 171/187/171 174/190/174
f 169/183/169 172/188/172 159/185/159
f 172/188/172 175/191/175 159/185/159
f 87/95/87 176/192/176 173/189/173 88/96/88
f 174/190/174 173/189/173 176/192/176 177/193/177
f 175/191/175 174/190/174 177/193/177 178/194/178
f 175/191/175 178/194/178 179/195/179 159/185/159
f 177/193/177 176/192/176 180/196/180 178/194/178
f 91/99/91 107/116/107 181/197/181 90/100/90
f 182/198/182 181/197/181 107/116/107 108/117/108
f 181/199/181 183/200/183 89/97/89 90/98/90
f 181/199/181 182/201/182 184/202/184 183/200/183
f 176/192/176 87/95/87 89/97/89 183/200/183
f 183/200/183 184/202/184 180/196/180 176/192/176
f 108/117/108 110/119/110 185/203/185 182/198/182
f 185/204/185 180/196/180 184/202/184 182/201/182
f 133/142/133 186/205/186 111/120/111 113/122/113
f 185/204/185 110/206/110 180/196/180
f 111/207/111 178/194/178 180/196/180 110/206/110
f 143/152/143 142/151/142 141/208/141 144/153/144
f 144/153/144 141/208/141 140/209/140 145/154/145
f 140/209/140 139/210/139 148/157/148 145/154/145
f 138/211/138 137/212/137 148/157/148 139/210/139
f 148/157/148 137/212/137 164/173/164
f 187/213/187 159/185/159 179/195/179
f 132/141/132 188/214/188 186/205/186 133/142/133
f 178/194/178 111/207/111 186/215/186 179/195/179
f 189/216/189 190/217/190 186/205/186 188/214/188
f 191/218/191 192/219/192 190/217/190 189/216/189
f 189/216/189 193/220/193 194/221/194 191/218/191
f 195/222/195 194/223/194 193/224/193 196/225/196
f 194/221/194 195/226/195 192/219/192 191/218/191
f 192/227/192 195/222/195 196/225/196 190/228/190
f 190/228/190 196/225/196 179/195/179 186/215/186
f 193/224/193 187/213/187 179/195/179 196/225/196
f 157/166/157 159/168/159 187/229/187 197/230/197
f 132/141/132 157/166/157 197/230/197 188/214/188
f 189/216/189 188/214/188 197/230/197 193/220/193
f 197/230/197 187/229/187 193/220/193
f 16/16/16 1/231/1 20/232/20 18/18/18
f 1/231/1 16/16/16 13/13/13 2/233/2
f 2/233/2 13/13/13 11/11/11 6/234/6
f 6/234/6 11/11/11 10/235/10 8/236/8
