# Blender v2.78 (sub 0) OBJ File: ''
# www.blender.org
mtllib С разверткой.mtl
o RetopoGroup1
v 0.448932 -3.605578 -0.030713
v 0.444710 -1.405899 -0.047950
v 0.341717 -1.407537 0.253028
v 0.358455 -3.621437 0.238737
v 0.336895 -6.005096 -0.304629
v 0.363275 -3.640732 -0.290036
v 0.439273 -5.997504 -0.038654
v 0.321296 -6.125080 -0.290837
v 0.125342 -6.128857 -0.417793
v 0.136514 -6.013164 -0.440864
v -0.143965 -6.123127 -0.409826
v -0.145232 -6.010404 -0.435224
v -0.351393 -6.124554 -0.243637
v -0.372359 -6.001856 -0.253674
v -0.404712 -6.131114 0.045329
v -0.429070 -5.993754 0.056384
v -0.230695 -6.133895 0.313394
v -0.243129 -5.996463 0.334395
v 0.094139 -6.135297 0.367180
v 0.093487 -6.002563 0.396777
v 0.349137 -6.137652 0.191038
v 0.368965 -6.009285 0.206248
v 0.415152 -6.131659 -0.037264
v 0.367041 -1.364689 -0.276302
v 0.167884 -3.629404 -0.444764
v 0.185942 -1.376447 -0.425367
v -0.167788 -3.666747 -0.444464
v -0.130115 -1.333127 -0.457357
v -0.388983 -3.677938 -0.251336
v -0.382309 -1.414786 -0.244274
v -0.437862 -3.667629 0.074109
v -0.439674 -1.468058 0.050965
v -0.250210 -3.670676 0.343208
v -0.258262 -1.456827 0.333977
v 0.065819 -3.666809 0.415427
v 0.015890 -1.486398 0.418391
v 0.453266 -1.251864 -0.297392
v 0.543055 -1.275556 -0.109309
v 0.287139 -1.179590 -0.511434
v -0.052804 -1.080003 -0.680787
v -0.318163 -1.088133 -0.617375
v -0.596474 -1.080067 -0.319455
v -0.645940 -1.125612 0.097441
v -0.453059 -1.130397 0.451687
v -0.026796 -1.028753 0.665379
v 0.418471 -1.100069 0.395682
v 0.662742 -0.841306 -0.016526
v 0.588931 -0.837778 -0.280172
v 0.385692 -0.787779 -0.549728
v 0.001551 -0.713526 -0.752737
v -0.367473 -0.659824 -0.684540
v -0.654626 -0.634071 -0.389605
v -0.757434 -0.607667 0.054165
v -0.560705 -0.595143 0.474840
v -0.139465 -0.555349 0.743782
v 0.412264 -0.698360 0.572657
v 0.689346 -0.419414 0.130104
v 0.684205 -0.251585 -0.259669
v 0.491839 -0.217050 -0.516676
v 0.091596 -0.141478 -0.731229
v -0.352057 -0.096807 -0.693010
v -0.688740 -0.086872 -0.421886
v -0.762432 -0.031647 -0.003298
v -0.598208 0.080309 0.385527
v -0.166359 0.174881 0.693015
v 0.342088 0.260092 0.584911
v 0.652883 0.337478 0.210262
v 0.641998 0.413322 -0.220357
v 0.415579 0.496183 -0.469434
v 0.087360 0.577787 -0.661847
v -0.358138 0.650489 -0.572437
v -0.634380 0.686243 -0.343607
v -0.691687 0.697082 -0.019857
v -0.475320 0.843737 0.267639
v -0.068194 0.902070 0.518309
v 0.250680 0.950902 0.415826
v 0.458695 0.950876 0.159999
v 0.451316 0.943177 -0.149810
v 0.395052 0.957460 -0.344374
v 0.119691 0.977326 -0.541294
v -0.278556 0.982839 -0.451451
v -0.476059 1.019840 -0.258135
v -0.512904 1.063722 -0.059269
v -0.115825 1.112373 0.285010
v 0.156713 1.130138 0.244737
v 0.242558 1.139467 -0.062099
vt 0.5338 0.3416
vt 0.7697 0.5675
vt 0.7344 0.5991
vt 0.5045 0.3682
vt 0.3272 0.0856
vt 0.5565 0.3113
vt 0.3019 0.1146
vt 0.3147 0.0745
vt 0.3354 0.0495
vt 0.3481 0.0599
vt 0.0930 0.3131
vt 0.0858 0.2979
vt 0.1162 0.2815
vt 0.1246 0.2932
vt 0.1384 0.2537
vt 0.1514 0.2656
vt 0.1676 0.2228
vt 0.1821 0.2362
vt 0.2000 0.1899
vt 0.2142 0.2040
vt 0.2337 0.1567
vt 0.2463 0.1707
vt 0.2642 0.1255
vt 0.2769 0.1380
vt 0.2879 0.1016
vt 0.7968 0.5427
vt 0.5821 0.2869
vt 0.8164 0.5149
vt 0.3395 0.5193
vt 0.5682 0.7722
vt 0.5303 0.7982
vt 0.3093 0.5542
vt 0.3679 0.4904
vt 0.5942 0.7295
vt 0.4018 0.4601
vt 0.6224 0.6942
vt 0.4341 0.4282
vt 0.6591 0.6603
vt 0.4665 0.3971
vt 0.6868 0.6287
vt 0.8099 0.5583
vt 0.7912 0.5766
vt 0.8406 0.5357
vt 0.5402 0.8291
vt 0.5864 0.8131
vt 0.6063 0.7926
vt 0.6349 0.7629
vt 0.6603 0.7292
vt 0.6879 0.7013
vt 0.7285 0.6780
vt 0.7610 0.6353
vt 0.8195 0.6230
vt 0.8439 0.6017
vt 0.8793 0.5762
vt 0.5679 0.8783
vt 0.6113 0.8449
vt 0.6389 0.8199
vt 0.6643 0.7933
vt 0.6907 0.7658
vt 0.7174 0.7393
vt 0.7504 0.7158
vt 0.7800 0.6751
vt 0.8358 0.6676
vt 0.8808 0.6615
vt 0.9194 0.6449
vt 0.6554 0.8863
vt 0.6250 0.9311
vt 0.6788 0.8499
vt 0.6987 0.8209
vt 0.7214 0.7981
vt 0.7484 0.7813
vt 0.7825 0.7622
vt 0.8204 0.7459
vt 0.8615 0.7352
vt 0.9056 0.7311
vt 0.9482 0.7378
vt 0.7239 0.9048
vt 0.7174 0.9510
vt 0.7348 0.8691
vt 0.7464 0.8464
vt 0.7593 0.8297
vt 0.7843 0.8228
vt 0.8178 0.8082
vt 0.8450 0.7988
vt 0.8734 0.7930
vt 0.9059 0.7946
vt 0.9316 0.7999
vt 0.7613 0.9056
vt 0.7796 0.9381
vt 0.7597 0.8747
vt 0.7692 0.8577
vt 0.7775 0.8456
vt 0.8286 0.8433
vt 0.8544 0.8218
vt 0.8920 0.8320
vt 0.8207 0.9088
vt 0.1314 0.2131
vt 0.0251 0.2303
vt 0.0501 0.1948
vt 0.0955 0.1861
vt 0.0274 0.2636
vt 0.0539 0.2930
vn 1.0000 -0.0007 -0.0074
vn 0.9608 -0.2759 0.0266
vn 0.7509 -0.2463 0.6127
vn 0.7809 0.0005 0.6247
vn 0.7887 -0.0943 -0.6075
vn 0.8115 -0.0023 -0.5842
vn 0.9956 -0.0876 -0.0317
vn 0.5524 -0.7064 -0.4425
vn 0.1805 -0.7429 -0.6446
vn 0.2933 -0.1058 -0.9501
vn -0.2514 -0.7094 -0.6584
vn -0.3369 -0.1021 -0.9360
vn -0.6099 -0.6977 -0.3758
vn -0.8607 -0.0924 -0.5006
vn -0.7015 -0.7012 0.1272
vn -0.9732 -0.0921 0.2106
vn -0.3969 -0.6998 0.5939
vn -0.5490 -0.0997 0.8298
vn 0.1560 -0.7056 0.6912
vn 0.1922 -0.1007 0.9761
vn 0.5725 -0.7147 0.4019
vn 0.8015 -0.0960 0.5902
vn 0.7045 -0.7086 -0.0401
vn 0.7406 -0.3529 -0.5718
vn 0.3330 -0.0011 -0.9429
vn 0.3505 -0.3115 -0.8832
vn -0.3389 -0.0008 -0.9408
vn -0.2622 -0.3966 -0.8797
vn -0.8692 -0.0015 -0.4943
vn -0.8095 -0.3184 -0.4932
vn -0.9768 -0.0021 0.2138
vn -0.9404 -0.2956 0.1680
vn -0.5675 -0.0035 0.8234
vn -0.5654 -0.3021 0.7674
vn 0.1557 -0.0029 0.9878
vn 0.1167 -0.2393 0.9639
vn 0.7458 -0.4310 -0.5079
vn 0.8957 -0.4377 -0.0779
vn 0.4851 -0.4095 -0.7726
vn 0.0532 -0.3836 -0.9219
vn -0.4425 -0.4046 -0.8003
vn -0.8197 -0.3785 -0.4299
vn -0.9147 -0.3751 0.1503
vn -0.6343 -0.3669 0.6804
vn 0.0139 -0.3313 0.9434
vn 0.6999 -0.3294 0.6337
vn 0.9765 -0.2033 0.0709
vn 0.8810 -0.1723 -0.4406
vn 0.6142 -0.1501 -0.7747
vn 0.1372 -0.1005 -0.9854
vn -0.4575 -0.0948 -0.8842
vn -0.8726 -0.1220 -0.4729
vn -0.9869 -0.1019 0.1250
vn -0.7390 -0.0761 0.6693
vn -0.1437 -0.0684 0.9872
vn 0.6141 -0.1202 0.7800
vn 0.9663 -0.0517 0.2521
vn 0.9372 -0.0037 -0.3488
vn 0.6578 0.0126 -0.7531
vn 0.2030 0.0554 -0.9776
vn -0.3968 0.0613 -0.9158
vn -0.8603 0.0299 -0.5089
vn -0.9922 0.0507 0.1134
vn -0.7660 0.1190 0.6316
vn -0.1993 0.1507 0.9683
vn 0.5266 0.1417 0.8382
vn 0.9270 0.1690 0.3347
vn 0.9365 0.1935 -0.2925
vn 0.6777 0.1788 -0.7132
vn 0.1934 0.2055 -0.9593
vn -0.3981 0.2565 -0.8807
vn -0.8242 0.2777 -0.4935
vn -0.9550 0.2693 0.1240
vn -0.6860 0.4109 0.6005
vn -0.1702 0.4788 0.8612
vn 0.4359 0.5397 0.7202
vn 0.7920 0.5431 0.2787
vn 0.8317 0.5301 -0.1647
vn 0.6550 0.5534 -0.5145
vn 0.1766 0.6412 -0.7468
vn -0.2712 0.6980 -0.6627
vn -0.5328 0.7575 -0.3773
vn -0.5990 0.7960 0.0866
vn -0.2165 0.8927 0.3952
vn 0.2194 0.9128 0.3443
vn 0.3053 0.9487 -0.0825
usemtl Default
s 1
f 1/1/1 2/2/2 3/3/3 4/4/4
f 5/5/5 6/6/6 1/1/1 7/7/7
f 5/5/5 8/8/8 9/9/9 10/10/10
f 10/11/10 9/12/9 11/13/11 12/14/12
f 12/14/12 11/13/11 13/15/13 14/16/14
f 14/16/14 13/15/13 15/17/15 16/18/16
f 16/18/16 15/17/15 17/19/17 18/20/18
f 18/20/18 17/19/17 19/21/19 20/22/20
f 20/22/20 19/21/19 21/23/21 22/24/22
f 22/24/22 21/23/21 23/25/23 7/7/7
f 6/6/6 24/26/24 2/2/2 1/1/1
f 25/27/25 26/28/26 24/26/24 6/6/6
f 27/29/27 28/30/28 26/31/26 25/32/25
f 29/33/29 30/34/30 28/30/28 27/29/27
f 31/35/31 32/36/32 30/34/30 29/33/29
f 33/37/33 34/38/34 32/36/32 31/35/31
f 35/39/35 36/40/36 34/38/34 33/37/33
f 4/4/4 3/3/3 36/40/36 35/39/35
f 37/41/37 38/42/38 2/2/2 24/26/24
f 24/26/24 26/28/26 39/43/39 37/41/37
f 39/44/39 26/31/26 28/30/28 40/45/40
f 41/46/41 40/45/40 28/30/28
f 30/34/30 42/47/42 41/46/41 28/30/28
f 42/47/42 30/34/30 32/36/32 43/48/43
f 43/48/43 32/36/32 34/38/34 44/49/44
f 44/49/44 34/38/34 36/40/36 45/50/45
f 36/40/36 3/3/3 46/51/46 45/50/45
f 3/3/3 2/2/2 38/42/38 46/51/46
f 38/42/38 47/52/47 46/51/46
f 48/53/48 47/52/47 38/42/38 37/41/37
f 48/53/48 37/41/37 39/43/39 49/54/49
f 49/55/49 39/44/39 40/45/40 50/56/50
f 51/57/51 50/56/50 40/45/40 41/46/41
f 51/57/51 41/46/41 42/47/42 52/58/52
f 52/58/52 42/47/42 43/48/43 53/59/53
f 54/60/54 53/59/53 43/48/43 44/49/44
f 54/60/54 44/49/44 45/50/45 55/61/55
f 55/61/55 45/50/45 46/51/46 56/62/56
f 57/63/57 56/62/56 46/51/46 47/52/47
f 58/64/58 57/63/57 47/52/47 48/53/48
f 48/53/48 49/54/49 59/65/59 58/64/58
f 60/66/60 59/67/59 49/55/49 50/56/50
f 51/57/51 61/68/61 60/66/60 50/56/50
f 52/58/52 62/69/62 61/68/61 51/57/51
f 63/70/63 62/69/62 52/58/52 53/59/53
f 64/71/64 63/70/63 53/59/53 54/60/54
f 65/72/65 64/71/64 54/60/54 55/61/55
f 66/73/66 65/72/65 55/61/55 56/62/56
f 66/73/66 56/62/56 57/63/57 67/74/67
f 68/75/68 67/74/67 57/63/57 58/64/58
f 59/65/59 69/76/69 68/75/68 58/64/58
f 70/77/70 69/78/69 59/67/59 60/66/60
f 71/79/71 70/77/70 60/66/60 61/68/61
f 71/79/71 61/68/61 62/69/62 72/80/72
f 63/70/63 73/81/73 72/80/72 62/69/62
f 63/70/63 64/71/64 74/82/74 73/81/73
f 65/72/65 75/83/75 74/82/74 64/71/64
f 65/72/65 66/73/66 76/84/76 75/83/75
f 77/85/77 76/84/76 66/73/66 67/74/67
f 78/86/78 77/85/77 67/74/67 68/75/68
f 79/87/79 78/86/78 68/75/68 69/76/69
f 80/88/80 79/89/79 69/78/69 70/77/70
f 80/88/80 70/77/70 71/79/71 81/90/81
f 82/91/82 81/90/81 71/79/71 72/80/72
f 83/92/83 82/91/82 72/80/72 73/81/73
f 83/92/83 73/81/73 74/82/74
f 75/83/75 84/93/84 83/92/83 74/82/74
f 75/83/75 76/84/76 85/94/85 84/93/84
f 76/84/76 77/85/77 86/95/86 85/94/85
f 79/87/79 86/95/86 77/85/77 78/86/78
f 79/89/79 80/88/80 86/96/86
f 80/88/80 81/90/81 82/91/82 86/96/86
f 82/91/82 83/92/83 84/93/84 86/96/86
f 86/95/86 84/93/84 85/94/85
f 7/7/7 23/25/23 8/8/8 5/5/5
f 10/10/10 25/27/25 6/6/6 5/5/5
f 12/14/12 27/29/27 25/32/25 10/11/10
f 14/16/14 29/33/29 27/29/27 12/14/12
f 16/18/16 31/35/31 29/33/29 14/16/14
f 18/20/18 33/37/33 31/35/31 16/18/16
f 20/22/20 35/39/35 33/37/33 18/20/18
f 22/24/22 4/4/4 35/39/35 20/22/20
f 7/7/7 1/1/1 4/4/4 22/24/22
f 15/97/15 21/98/21 19/99/19 17/100/17
f 21/98/21 15/97/15 13/15/13 23/101/23
f 23/101/23 13/15/13 11/13/11 8/102/8
f 8/102/8 11/13/11 9/12/9
